# xmcd
#
# Track frame offsets:
#	150
#	20023
#	39874
#	54685
#	70506
#	85718
#	115371
#	130367
#	150010
#	173743
#	208533
#	224591
#
# Disc length: 3225 seconds
#
# Revision: 3
# Processed by: cddbd v1.5.2PL0 Copyright (c) Steve Scherf et al.
# Submitted via: EasyCDDAExtractor 15.3.0.1
#
DISCID=9b0c970c
DTITLE=Lucero - En Vivo - Auditorio Nacional - CD 1 - Pop
DYEAR=2007
DGENRE=Latin
TTITLE0=O Tu O Nada
TTITLE1=Veleta
TTITLE2=Sobrevivire
TTITLE3=La Gata Bajo La Lluvia
TTITLE4=Que Pasara Mañana
TTITLE5=Popurri Balada (El Numero Uno, Amor Secreto, Tanto, Corazon A La Deriv
TTITLE5=a)
TTITLE6=Ya No
TTITLE7=Electricidad
TTITLE8=Amante Bandido
TTITLE9=Popurri Pop (Historias De Amores, Cuentame, Vete Con Ella (Chapel Of L
TTITLE9=ove))
TTITLE10=Tacticas De Guerra
TTITLE11=La Unica Que Te Entiende
EXTD=
EXTT0=
EXTT1=
EXTT2=
EXTT3=
EXTT4=
EXTT5=
EXTT6=
EXTT7=
EXTT8=
EXTT9=
EXTT10=
EXTT11=
PLAYORDER=
